<?xml version="1.0" encoding="UTF-8"?>
<svg id="_Слой_2" data-name="Слой 2" xmlns="http://www.w3.org/2000/svg" xmlns:xlink="http://www.w3.org/1999/xlink" viewBox="0 0 408.61 331.15">
  <defs>
    <style>
      .cls-1 {
        letter-spacing: .02em;
      }

      .cls-1, .cls-2 {
        font-size: 59.82px;
      }

      .cls-3 {
        letter-spacing: .02em;
      }

      .cls-3, .cls-4 {
        font-size: 44.87px;
      }

      .cls-2 {
        letter-spacing: .02em;
      }

      .cls-5 {
        font-family: LucidaBright-Demi, 'Lucida Bright';
        font-weight: 300;
      }

      .cls-5, .cls-6 {
        fill: #201600;
      }

      .cls-4 {
        letter-spacing: .02em;
      }
    </style>
  </defs>
  <g id="_Слой_1-2" data-name="Слой 1">
    <g>
      <path class="cls-6" d="M318.73,272.5h3.68c-27.28,35.65-70.27,58.65-118.63,58.65s-91.35-23-118.63-58.65h3.68c26.81,33.95,68.33,55.74,114.94,55.74s88.14-21.79,114.94-55.74ZM203.78,32.59c-2.51,0-5.01.06-7.49.19l.41,2.89c2.35-.11,4.71-.17,7.08-.17,80.84,0,146.37,65.53,146.37,146.37,0,6.94-.48,13.76-1.42,20.44-.06.46-.13.92-.2,1.37h2.94s.01-.08.02-.12l.12-.85c.95-6.81,1.44-13.77,1.44-20.84,0-82.44-66.83-149.28-149.28-149.28ZM57.41,181.87c0-43.23,18.74-82.08,48.55-108.88l-1.38-2.66c-30.72,27.34-50.07,67.18-50.07,111.54,0,7.07.49,14.03,1.44,20.84.05.32.09.65.14.97h2.94c-.07-.46-.13-.91-.2-1.37-.93-6.68-1.42-13.5-1.42-20.44ZM203.78,303.04c30.92,0,59.13-11.58,80.54-30.64h-4.44c-20.57,17.31-47.11,27.73-76.09,27.73s-55.53-10.43-76.09-27.73h-4.44c21.24,18.91,49.18,30.46,79.82,30.64h.72ZM282.17,298.07c.8-.53,1.39-1.09,1.76-1.67.37-.59.54-1.17.54-1.72,0-.57-.16-1.09-.47-1.56-.3-.46-.65-.78-1.04-.95-.38-.18-.79-.25-1.21-.23-.42.02-.85.11-1.3.24-.44.14-.87.29-1.31.45-.44.16-.84.29-1.21.4-.36.11-.69.15-.99.11-.29-.05-.53-.2-.71-.47-.15-.23-.22-.47-.21-.72.02-.26.13-.54.33-.83.21-.3.54-.59,1-.89.38-.25.82-.46,1.32-.62.49-.17,1.01-.26,1.56-.29l-.32-1.61c-.55,0-1.13.11-1.73.32-.61.21-1.17.49-1.7.83-.8.53-1.39,1.09-1.75,1.68-.36.58-.54,1.15-.54,1.72,0,.56.17,1.08.49,1.55.31.47.66.79,1.05.96.39.17.8.25,1.22.24.43-.03.86-.11,1.31-.23.45-.14.88-.29,1.31-.45.43-.16.83-.3,1.2-.39.37-.11.71-.15,1.01-.11.3.03.53.18.71.45.14.22.21.46.19.72-.02.26-.14.53-.36.82-.22.29-.56.58-1.02.89-.54.36-1.13.62-1.77.78-.64.16-1.23.22-1.76.17l.27,1.64c.57.07,1.24,0,2-.22.75-.22,1.47-.56,2.16-1.01ZM276.07,301.71l1.99-1.11-6.94-2.79,1.57-6.26-1.91,1.07-1.9,7.25-2.63-4.71-1.7.95,5.13,9.18,1.7-.95-1.32-2.35.63-2.31,5.38,2.04ZM264.28,305.19l-4.79,2.18.06,2.65-1.83.83-.06-11.53,1.75-.8,8.68,7.6-1.86.85-1.96-1.78ZM263.04,304.07l-3.71-3.37.12,5.01,3.59-1.64ZM256.04,311.44l-3.5-9.92-1.83.64,2.37,6.72-7.84-4.78-1.52.53,3.5,9.92,1.83-.64-2.37-6.71,7.84,4.78,1.52-.54ZM241.72,314.42c-.3.2-.71.38-1.25.52-.63.16-1.27.22-1.93.16-.66-.05-1.23-.19-1.72-.4l-.27,1.64c.52.24,1.17.39,1.96.43.79.03,1.58-.06,2.37-.27.93-.24,1.66-.58,2.2-1.02.54-.44.89-.93,1.06-1.46.18-.54.19-1.09.05-1.63-.14-.53-.37-.95-.68-1.23-.31-.29-.66-.49-1.08-.6-.4-.11-.84-.17-1.31-.18-.46-.01-.92,0-1.38,0-.46,0-.89,0-1.28,0-.38-.01-.7-.08-.97-.21-.26-.14-.44-.36-.52-.67-.07-.26-.06-.51.03-.75.1-.24.3-.47.58-.68.3-.21.71-.39,1.23-.53.45-.12.93-.17,1.45-.16.52,0,1.04.07,1.57.22l.21-1.62c-.52-.17-1.1-.26-1.75-.25-.64,0-1.27.08-1.88.24-.93.24-1.66.59-2.2,1.03-.53.43-.88.92-1.06,1.46-.17.53-.18,1.07-.04,1.63.14.54.37.96.69,1.25.31.29.67.5,1.08.62.41.11.85.17,1.31.2.47.01.93,0,1.38,0,.46-.02.88-.01,1.26,0,.39.01.72.08.99.22.27.12.45.34.53.65.07.25.05.5-.05.74-.1.24-.31.45-.6.66ZM229.7,308.17l-8.82,1.38.26,1.63,3.44-.54,1.37,8.76,1.93-.3-1.37-8.76,3.44-.54-.26-1.63ZM220.16,309.59l-7.65.63.87,10.48,7.86-.65-.14-1.63-5.91.49-.24-2.89,5.06-.42-.13-1.6-5.06.42-.23-2.73,5.7-.47-.14-1.63ZM206.49,317.82h-2.37s.02,3.05.02,3.05h-1.95s-.05-10.51-.05-10.51l4.33-.02c.93,0,1.73.14,2.39.44.67.3,1.19.72,1.55,1.28.36.56.55,1.22.55,1.99,0,.77-.17,1.44-.53,2-.36.56-.87,1-1.54,1.3-.66.31-1.46.46-2.39.46ZM206.39,316.17c.86,0,1.51-.19,1.94-.55.44-.37.66-.89.65-1.55,0-.67-.23-1.18-.67-1.54-.43-.36-1.08-.54-1.94-.53h-2.28s.02,4.19.02,4.19h2.28ZM194.31,320.43l1.24-10.44-1.6-.19-4.91,6.43-3.31-7.42-1.6-.19-1.26,10.44,1.85.22.82-6.83,2.75,6.05.87.1,4.12-5.31-.82,6.92,1.83.22ZM174.94,306.67l-1.91-.42-1.28,5.79c-.33,1.5-.19,2.73.43,3.7.63.97,1.65,1.61,3.05,1.92,1.4.31,2.58.16,3.55-.46.98-.62,1.63-1.67,1.96-3.17l1.28-5.8-1.88-.41-1.26,5.72c-.23,1.06-.63,1.77-1.18,2.15-.56.38-1.25.48-2.08.29-.83-.18-1.42-.56-1.78-1.15-.34-.58-.4-1.4-.17-2.45l1.26-5.72ZM170.58,305.61l-1.88-.54-2.92,10.11,1.88.54,2.92-10.11ZM162.67,314.13l3.62-9.87-1.51-.56-6.26,5.12-1.51-7.98-1.51-.56-3.64,9.87,1.75.64,2.38-6.45,1.28,6.52.82.3,5.24-4.21-2.4,6.54,1.73.64ZM153.09,301.04l.71-1.48-6.93-3.31-4.53,9.49,7.12,3.4.71-1.48-5.36-2.56,1.25-2.62,4.58,2.19.69-1.45-4.58-2.19,1.18-2.47,5.17,2.46ZM139.95,300.45c-.05,0-.1-.03-.15-.04l.37,4.2-1.82-1.05-.32-3.76c-.12-.06-.24-.1-.36-.17l-2.06-1.19-1.53,2.65-1.69-.98,5.26-9.11,3.75,2.16c.81.47,1.42,1,1.84,1.58.43.6.66,1.23.69,1.9.03.66-.15,1.33-.53,2-.39.67-.88,1.16-1.47,1.46-.59.3-1.25.41-1.98.33ZM140.34,298.68c.57-.1,1.02-.44,1.35-1.01.34-.58.4-1.14.2-1.67-.19-.53-.66-1.01-1.41-1.44l-1.98-1.14-2.1,3.63,1.98,1.14c.75.43,1.4.59,1.96.49ZM124.71,294.96l-1.61-1.11,5.98-8.65,3.56,2.46c.77.53,1.34,1.11,1.71,1.73.38.63.56,1.28.54,1.94-.02.67-.25,1.32-.69,1.95-.44.63-.97,1.08-1.58,1.34-.62.26-1.28.32-2.01.18-.71-.13-1.45-.46-2.22-.99l-1.95-1.35-1.73,2.5ZM127.38,291.1l1.88,1.3c.71.49,1.34.71,1.9.66.57-.05,1.05-.35,1.42-.9.38-.55.49-1.1.34-1.65-.15-.54-.58-1.06-1.29-1.55l-1.88-1.3-2.38,3.44Z"/>
      <image width="2560" height="2560" transform="translate(95.77) scale(.08)" xlink:href="../../Downloads/Telegram Desktop/IMG_5011.PNG"/>
      <text class="cls-5" transform="translate(0 253.18)"><tspan class="cls-1" x="0" y="0">I</tspan><tspan class="cls-3" x="22.05" y="0">NDI</tspan><tspan class="cls-2" x="111.23" y="0">G</tspan><tspan class="cls-4" x="157.42" y="0">O </tspan><tspan class="cls-1" x="209.44" y="0">T</tspan><tspan class="cls-3" x="253.29" y="0">REATS</tspan></text>
    </g>
  </g>
</svg>